<svg xmlns="http://www.w3.org/2000/svg" viewBox="0 0 2500 2500" version="1.1">
	<path d="M 636.500 0.653 C 564.353 5.074, 511.186 15.098, 452 35.438 C 352.897 69.497, 269.221 121.689, 195.455 195.455 C 121.666 269.243, 69.508 352.866, 35.438 452 C 17.633 503.810, 6.693 557.030, 1.831 615.500 C -0.141 639.206, -0.141 1860.794, 1.831 1884.500 C 11.193 1997.075, 45.463 2099.382, 105.111 2192.824 C 155.781 2272.203, 227.808 2344.226, 307.210 2394.911 C 400.564 2454.503, 503.002 2488.813, 615.500 2498.169 C 639.206 2500.141, 1860.794 2500.141, 1884.500 2498.169 C 1996.998 2488.813, 2099.436 2454.503, 2192.790 2394.911 C 2263.111 2350.023, 2328.247 2287.890, 2377.204 2219 C 2440.845 2129.448, 2481.852 2023.740, 2494.941 1915.500 C 2497.357 1895.524, 2499 1875.449, 2499 1865.914 C 2499 1862.176, 2499.450 1858.840, 2500 1858.500 C 2500.665 1858.089, 2501 1653.803, 2501 1248.882 C 2501 843.137, 2500.666 640.088, 2500 640.500 C 2499.370 640.889, 2499 638.559, 2499 634.204 C 2499 624.559, 2497.367 604.560, 2494.941 584.500 C 2480.598 465.884, 2432.745 350.591, 2358.595 256 C 2326.965 215.650, 2284.350 173.035, 2244 141.405 C 2149.391 67.241, 2034.197 19.428, 1915.500 5.056 C 1906.150 3.924, 1893.100 2.460, 1886.500 1.803 C 1877.355 0.892, 1727.815 0.577, 1258 0.478 C 918.925 0.406, 639.250 0.485, 636.500 0.653 M 649.500 334.079 C 579.710 337.459, 512.731 362.996, 457.614 407.241 C 444.612 417.678, 417.678 444.612, 407.241 457.614 C 362.067 513.889, 337.569 579.155, 333.995 652.753 C 332.700 679.420, 332.700 1820.580, 333.995 1847.247 C 337.569 1920.845, 362.067 1986.111, 407.241 2042.386 C 417.678 2055.388, 444.612 2082.322, 457.614 2092.759 C 513.889 2137.933, 579.155 2162.431, 652.753 2166.005 C 679.420 2167.300, 1820.580 2167.300, 1847.247 2166.005 C 1894.914 2163.690, 1934.933 2153.860, 1975.780 2134.432 C 2012.137 2117.140, 2039.233 2097.908, 2068.570 2068.570 C 2097.894 2039.246, 2117.079 2012.222, 2134.444 1975.780 C 2153.725 1935.316, 2163.701 1894.690, 2166.005 1847.247 C 2167.300 1820.580, 2167.300 679.420, 2166.005 652.753 C 2162.431 579.155, 2137.933 513.889, 2092.759 457.614 C 2082.322 444.612, 2055.388 417.678, 2042.386 407.241 C 1986.111 362.067, 1920.845 337.569, 1847.247 333.995 C 1823.491 332.841, 673.393 332.922, 649.500 334.079 M 1731 584.024 C 1703.349 587.847, 1675.144 598.445, 1654.932 612.608 C 1636.642 625.424, 1624.451 638.053, 1611.597 657.500 C 1607.598 663.550, 1495.310 855.329, 1362.069 1083.675 L 1119.813 1498.851 984.754 1390.807 C 910.471 1331.382, 845.601 1280.069, 840.597 1276.777 C 812.968 1258.597, 784.351 1250, 751.462 1250 C 690.489 1250, 639.389 1278.704, 606.764 1331.280 C 583.705 1368.439, 577.333 1414.354, 588.934 1459.748 C 596.358 1488.801, 611.539 1514.910, 632.804 1535.201 C 644.069 1545.949, 995.126 1826.649, 1008 1835.202 C 1036.557 1854.173, 1072.353 1867.297, 1111.500 1873.150 C 1123.188 1874.897, 1161.473 1874.920, 1173.500 1873.186 C 1186.739 1871.278, 1201.118 1868.248, 1212.984 1864.866 C 1271.440 1848.201, 1322.995 1808.774, 1355.987 1755.500 C 1362.660 1744.725, 1884.627 850.538, 1894.974 832.155 C 1908.874 807.461, 1915.531 784.547, 1916.662 757.500 C 1918.758 707.360, 1897.050 655.805, 1860.948 625.185 C 1838.109 605.814, 1810.296 591.918, 1782.500 585.989 C 1771.159 583.570, 1742.259 582.467, 1731 584.024 M 0.497 1250 C 0.497 1585.225, 0.611 1722.363, 0.750 1554.750 C 0.889 1387.138, 0.889 1112.863, 0.750 945.250 C 0.611 777.638, 0.497 914.775, 0.497 1250" stroke="none" fill="#01bf43" fill-rule="evenodd"></path>
</svg>